<?xml version="1.0" encoding="UTF-8" standalone="no"?>
<svg width="100px" height="100px" viewBox="0 0 100 100" version="1.1" xmlns="http://www.w3.org/2000/svg" xmlns:xlink="http://www.w3.org/1999/xlink" xmlns:sketch="http://www.bohemiancoding.com/sketch/ns">
    <!-- Generator: Sketch 3.3.3 (12072) - http://www.bohemiancoding.com/sketch -->
    <title>logo</title>
    <desc>Created with Sketch.</desc>
    <defs></defs>
    <g id="Page-1" stroke="none" stroke-width="1" fill="none" fill-rule="evenodd" sketch:type="MSPage">
        <g id="Artboard-1" sketch:type="MSArtboardGroup" transform="translate(-127.000000, -76.000000)" fill="#FFFFFF">
            <path d="M176.86,76.5 C149.599,76.5 127.5,98.599 127.5,125.86 C127.5,153.121 149.599,175.22 176.86,175.22 C204.121,175.22 226.22,153.121 226.22,125.86 C226.22,98.599 204.121,76.5 176.86,76.5 Z M176.86,161.75 C157.039,161.75 140.97,145.682 140.97,125.86 C140.97,106.039 157.039,89.97 176.86,89.97 C196.682,89.97 212.75,106.039 212.75,125.86 C212.75,145.682 196.682,161.75 176.86,161.75 Z M209.076,93.762 L209.649,93.248 C209.717,93.188 209.815,93.193 209.876,93.26 L212.943,96.678 C213.004,96.745 212.998,96.844 212.932,96.904 C212.85,96.978 212.755,97.022 212.654,97.045 L206.458,98.291 L208.604,100.681 C208.664,100.748 208.658,100.847 208.592,100.907 L208.011,101.428 C207.943,101.488 207.845,101.483 207.784,101.416 L204.59,97.856 C204.529,97.79 204.535,97.69 204.602,97.63 L204.669,97.57 C204.743,97.503 204.846,97.452 204.946,97.429 L211.042,96.192 L209.064,93.988 C209.004,93.921 209.01,93.823 209.076,93.762 Z M203.537,89.028 L204.021,88.428 C204.077,88.358 204.176,88.348 204.246,88.404 L207.818,91.29 C207.888,91.347 207.898,91.445 207.842,91.515 C207.772,91.601 207.687,91.66 207.591,91.698 L201.673,93.914 L204.171,95.932 C204.241,95.988 204.252,96.087 204.195,96.157 L203.705,96.764 C203.648,96.834 203.55,96.844 203.479,96.788 L199.76,93.783 C199.689,93.726 199.68,93.627 199.736,93.558 L199.792,93.488 C199.855,93.41 199.948,93.343 200.043,93.304 L205.864,91.114 L203.561,89.253 C203.49,89.196 203.48,89.098 203.537,89.028 Z M201.07,86.339 L201.841,86.822 C201.917,86.87 201.939,86.966 201.892,87.042 L198.345,92.7 C198.297,92.776 198.2,92.798 198.124,92.75 L197.354,92.267 C197.277,92.219 197.255,92.123 197.303,92.046 L200.85,86.389 C200.897,86.313 200.994,86.291 201.07,86.339 Z M191.5,89.085 L194.344,83.041 C194.383,82.96 194.476,82.926 194.557,82.964 L196.801,84.02 C198.521,84.829 198.474,86.266 198.087,87.089 C197.508,88.32 196.039,88.624 195.017,88.142 L193.613,87.482 L192.613,89.609 C192.575,89.69 192.481,89.724 192.4,89.686 L191.577,89.298 C191.495,89.26 191.462,89.167 191.5,89.085 Z M182.926,79.986 C182.943,79.897 183.025,79.842 183.113,79.859 L185.364,80.292 C187.988,80.797 188.38,82.941 188.104,84.377 C187.82,85.851 186.663,87.676 184.04,87.171 L181.789,86.737 C181.701,86.721 181.646,86.639 181.662,86.55 L182.926,79.986 Z M174.307,79.526 C174.308,79.456 174.369,79.397 174.429,79.398 C174.509,79.399 174.588,79.431 174.647,79.492 L178.724,83.779 L178.792,79.711 C178.794,79.622 178.865,79.553 178.955,79.554 L179.864,79.569 C179.954,79.571 180.023,79.642 180.021,79.732 L179.907,86.528 C179.906,86.598 179.846,86.657 179.766,86.656 C179.686,86.655 179.605,86.623 179.547,86.552 L175.492,82.186 L175.422,86.333 C175.42,86.423 175.349,86.492 175.259,86.49 L174.35,86.475 C174.26,86.474 174.191,86.402 174.192,86.313 L174.307,79.526 Z M167.286,80.461 L171.59,79.75 C171.679,79.735 171.759,79.792 171.774,79.881 L171.901,80.651 C171.916,80.74 171.858,80.821 171.77,80.835 L168.512,81.375 L168.822,83.25 L171.339,82.834 C171.428,82.819 171.509,82.877 171.523,82.966 L171.651,83.736 C171.666,83.825 171.608,83.905 171.519,83.92 L169.001,84.336 L169.295,86.113 L172.553,85.574 C172.642,85.56 172.723,85.617 172.737,85.706 L172.865,86.476 C172.879,86.565 172.822,86.646 172.733,86.66 L168.428,87.372 C168.339,87.387 168.259,87.329 168.244,87.24 L167.154,80.646 C167.139,80.557 167.197,80.476 167.286,80.461 Z M160.13,82.561 L164.741,81.051 C164.827,81.023 164.915,81.068 164.943,81.154 L165.186,81.895 C165.214,81.98 165.169,82.069 165.084,82.097 L163.353,82.664 L165.14,88.12 C165.168,88.206 165.123,88.294 165.038,88.322 L164.172,88.605 C164.087,88.633 163.999,88.588 163.971,88.503 L162.184,83.046 L160.473,83.607 C160.387,83.635 160.299,83.59 160.271,83.504 L160.028,82.763 C160,82.677 160.045,82.589 160.13,82.561 Z M152.884,86.006 C152.955,85.969 153.039,85.959 153.12,85.983 L158.757,87.787 L156.863,84.185 C156.821,84.105 156.851,84.011 156.93,83.969 L157.735,83.545 C157.815,83.503 157.91,83.533 157.952,83.612 L161.116,89.631 C161.149,89.692 161.124,89.773 161.053,89.811 C160.982,89.848 160.897,89.859 160.812,89.825 L155.155,87.941 L157.086,91.614 C157.128,91.694 157.099,91.788 157.019,91.83 L156.214,92.253 C156.134,92.295 156.04,92.266 155.998,92.187 L152.838,86.177 C152.806,86.115 152.831,86.034 152.884,86.006 Z M147.809,89.629 C149.883,87.964 151.839,89.125 152.752,90.263 C153.691,91.433 154.381,93.571 152.307,95.235 C150.225,96.905 148.288,95.769 147.349,94.599 C146.435,93.46 145.727,91.299 147.809,89.629 Z M140.411,97.159 L142.021,95.301 C143.265,93.866 144.635,94.299 145.323,94.895 C146.093,95.563 146.228,96.552 145.939,97.374 C146.786,97.618 147.79,97.893 148.636,98.137 C148.701,98.154 148.729,98.244 148.683,98.297 L148.029,99.052 C147.963,99.127 147.859,99.156 147.772,99.134 L145.256,98.421 L144.49,99.305 L146.265,100.843 C146.333,100.902 146.34,101.001 146.281,101.069 L145.698,101.741 C145.639,101.809 145.541,101.816 145.473,101.757 L140.427,97.384 C140.359,97.326 140.352,97.227 140.411,97.159 Z M136.446,103.092 L138.748,99.393 C138.795,99.317 138.892,99.294 138.968,99.342 L139.629,99.754 C139.706,99.801 139.728,99.897 139.681,99.974 L137.938,102.773 L139.55,103.777 L140.897,101.613 C140.944,101.537 141.041,101.515 141.117,101.562 L141.779,101.974 C141.855,102.021 141.877,102.118 141.83,102.194 L140.484,104.357 L142.808,105.804 C142.885,105.852 142.907,105.948 142.859,106.024 L142.384,106.788 C142.337,106.864 142.241,106.887 142.164,106.839 L136.497,103.313 C136.42,103.265 136.398,103.169 136.446,103.092 Z M156.696,165.45 C156.263,166.182 155.171,166.907 153.536,165.939 L151.419,164.685 C151.342,164.639 151.317,164.543 151.363,164.466 L154.768,158.717 C154.813,158.64 154.909,158.615 154.987,158.661 L157.104,159.914 C158.739,160.883 158.623,162.197 158.19,162.929 C157.904,163.411 157.318,163.831 156.71,163.738 C157.079,164.235 156.977,164.978 156.696,165.45 Z M162.695,165.827 C162.779,165.86 162.818,165.951 162.785,166.035 L162.496,166.76 C162.462,166.844 162.371,166.883 162.288,166.85 L159.918,165.903 L159.251,167.576 L162.317,168.8 C162.401,168.833 162.44,168.925 162.407,169.008 L162.117,169.732 C162.084,169.816 161.993,169.856 161.909,169.822 L157.858,168.205 C157.774,168.172 157.735,168.081 157.769,167.997 L160.245,161.79 C160.279,161.706 160.37,161.667 160.453,161.701 L164.505,163.317 C164.588,163.351 164.627,163.441 164.594,163.525 L164.305,164.25 C164.271,164.334 164.181,164.373 164.097,164.34 L161.03,163.116 L160.326,164.882 L162.695,165.827 Z M170.2,167.008 C169.973,168.002 169.163,168.586 168.301,168.718 C168.484,169.58 168.713,170.597 168.896,171.46 C168.912,171.524 168.845,171.592 168.777,171.576 L167.802,171.354 C167.705,171.331 167.63,171.252 167.609,171.166 L167.055,168.607 L165.914,168.347 L165.39,170.638 C165.37,170.726 165.286,170.778 165.199,170.759 L164.331,170.561 C164.243,170.54 164.19,170.456 164.21,170.368 L165.699,163.855 C165.719,163.768 165.802,163.715 165.89,163.735 L168.289,164.283 C170.142,164.706 170.403,166.12 170.2,167.008 Z M177.144,172.268 C177.14,172.338 177.076,172.395 176.997,172.39 C176.917,172.386 176.838,172.351 176.782,172.278 L172.897,167.76 L172.669,171.901 C172.664,171.991 172.591,172.057 172.501,172.052 L171.593,172.002 C171.503,171.997 171.437,171.924 171.442,171.834 L171.815,165.058 C171.818,164.988 171.882,164.932 171.941,164.935 C172.021,164.939 172.1,164.974 172.156,165.036 L176.066,169.476 L176.29,165.414 C176.294,165.324 176.368,165.259 176.458,165.264 L177.366,165.314 C177.456,165.318 177.522,165.392 177.517,165.481 L177.144,172.268 Z M186.373,171.273 L182.716,171.896 C182.628,171.911 182.547,171.854 182.531,171.765 L182.508,171.627 C182.491,171.528 182.504,171.425 182.559,171.324 L184.423,167.862 C184.851,167.039 184.78,166.625 184.768,166.546 C184.696,166.132 184.404,165.726 183.694,165.847 C183.241,165.924 182.831,166.257 182.414,166.784 C182.355,166.856 182.257,166.872 182.186,166.814 L181.64,166.409 C181.569,166.351 181.553,166.252 181.6,166.173 C182.154,165.378 182.843,164.957 183.514,164.843 C184.677,164.645 185.68,165.113 185.897,166.395 C185.995,166.966 185.758,167.717 185.385,168.389 L184.229,170.533 L186.19,170.199 C186.279,170.184 186.359,170.241 186.375,170.33 L186.504,171.089 C186.52,171.178 186.462,171.258 186.373,171.273 Z M190.997,170.09 C189.073,170.703 187.886,168.984 187.445,167.604 C187.018,166.261 186.981,164.144 188.905,163.529 C190.838,162.913 192.035,164.661 192.463,166.004 C192.903,167.384 192.93,169.474 190.997,170.09 Z M197.094,167.593 L196.304,167.957 C196.223,167.994 196.13,167.96 196.092,167.879 L194.089,163.529 L193.463,164.368 C193.411,164.447 193.308,164.462 193.233,164.419 L192.747,164.104 C192.677,164.048 192.645,163.953 192.683,163.869 L193.684,161.813 C193.731,161.725 193.806,161.647 193.896,161.605 L194.259,161.438 C194.341,161.4 194.434,161.435 194.472,161.516 L197.172,167.381 C197.21,167.463 197.176,167.556 197.094,167.593 Z M200.591,165.763 C199.845,166.211 199.129,166.187 198.456,165.96 C198.374,165.939 198.326,165.84 198.354,165.753 L198.57,165.063 C198.6,164.975 198.682,164.937 198.764,164.958 C199.307,165.122 199.737,165.062 200.063,164.865 C200.732,164.463 200.791,163.727 200.477,163.204 C200.173,162.698 199.508,162.408 198.822,162.821 L197.613,163.548 C197.535,163.595 197.439,163.57 197.394,163.493 L195.814,160.869 C195.769,160.792 195.792,160.696 195.869,160.649 L198.545,159.041 C198.622,158.994 198.719,159.019 198.765,159.096 L199.142,159.722 C199.187,159.799 199.164,159.895 199.087,159.941 L197.286,161.024 L197.972,162.165 L198.307,161.964 C199.944,160.979 201.029,161.891 201.494,162.662 C201.86,163.271 202.212,164.788 200.591,165.763 Z M211.93,107.41 C211.887,107.473 211.792,107.474 211.749,107.406 L211.192,106.528 C211.139,106.444 211.146,106.344 211.201,106.263 L212.223,104.833 L210.97,102.858 L209.246,103.183 C209.148,103.197 209.055,103.162 209.002,103.077 L208.444,102.2 C208.401,102.132 208.442,102.047 208.518,102.035 L215.821,100.879 C215.914,100.856 216.013,100.9 216.066,100.984 L216.093,101.027 C216.146,101.111 216.139,101.21 216.084,101.293 L211.93,107.41 Z M162.776,125.733 C162.776,131.643 164.435,137.767 167.582,143.763 C167.794,144.104 167.666,144.528 167.326,144.741 L165.158,146.102 C164.86,146.314 164.435,146.23 164.222,145.931 C159.672,139.256 157.715,132.324 157.715,125.775 C157.715,119.226 159.672,112.507 164.222,105.788 C164.435,105.491 164.86,105.405 165.158,105.618 L167.326,106.979 C167.666,107.192 167.794,107.617 167.582,107.957 C164.435,113.911 162.776,119.906 162.776,125.733 Z M188.903,125.861 L180.78,120.715 C180.483,120.502 180.355,120.076 180.568,119.736 L181.929,117.355 C182.098,117.015 182.524,116.93 182.864,117.1 L195.409,124.712 C195.791,124.925 196.005,125.307 196.005,125.733 L196.005,125.988 C196.005,126.413 195.791,126.796 195.409,127.009 L182.864,134.62 C182.524,134.79 182.098,134.706 181.929,134.364 L180.568,131.984 C180.355,131.644 180.483,131.218 180.78,131.006 L188.903,125.861 Z M168.095,165.356 L166.671,165.031 L166.163,167.255 L167.626,167.589 C168.547,167.778 168.921,167.085 169.001,166.733 C169.088,166.354 169.05,165.575 168.095,165.356 Z M189.218,164.511 C188.009,164.896 188.387,166.674 188.568,167.245 C188.751,167.816 189.475,169.495 190.685,169.109 C191.894,168.724 191.512,166.937 191.33,166.365 C191.147,165.794 190.427,164.125 189.218,164.511 Z M155.135,163.515 L153.801,162.725 L152.883,164.273 L154.183,165.043 C155.018,165.537 155.503,165.012 155.621,164.814 C155.779,164.547 155.925,164.006 155.135,163.515 Z M157.114,162.292 C157.231,162.094 157.469,161.397 156.634,160.903 L155.335,160.134 L154.367,161.77 L155.7,162.559 C156.511,163.016 156.977,162.524 157.114,162.292 Z M144.626,97.439 C145.226,96.716 144.79,96.06 144.518,95.824 C144.223,95.569 143.519,95.236 142.877,95.977 L141.922,97.079 L143.644,98.572 L144.626,97.439 Z M151.612,94.369 C153.117,93.162 152.166,91.529 151.778,91.045 C151.39,90.562 150.014,89.294 148.509,90.502 C146.989,91.722 147.928,93.339 148.316,93.823 C148.704,94.307 150.092,95.589 151.612,94.369 Z M212.872,103.935 L214.057,102.295 L212.063,102.661 L212.872,103.935 Z M186.885,84.142 C187.003,83.532 187.064,81.73 185.158,81.363 L183.939,81.129 L183.029,85.855 L184.248,86.09 C186.154,86.457 186.768,84.751 186.885,84.142 Z M196.974,86.565 C197.14,86.213 197.269,85.445 196.382,85.027 L195.061,84.406 L194.091,86.469 L195.448,87.107 C196.307,87.49 196.82,86.891 196.974,86.565 Z" id="logo" sketch:type="MSShapeGroup"></path>
        </g>
    </g>
</svg>